<?xml version="1.0" standalone="no"?><!DOCTYPE svg PUBLIC "-//W3C//DTD SVG 1.1//EN" "http://www.w3.org/Graphics/SVG/1.1/DTD/svg11.dtd"><svg t="1614775551374" class="icon" viewBox="0 0 1024 1024" version="1.1" xmlns="http://www.w3.org/2000/svg" p-id="834" xmlns:xlink="http://www.w3.org/1999/xlink" width="128" height="128"><defs><style type="text/css"></style></defs><path d="M940.1856 443.904c-33.25952-136.3968-79.33952-278.4256-243.77344-255.0784-63.4368 9.0112-111.43168 46.1824-182.272 46.3872-59.15648 0.1024-105.472-37.2736-159.86688-46.3872-164.28032-27.7504-203.22304 50.8928-250.94144 197.632-26.9824 82.944-113.152 369.0496-15.21664 437.5552 99.23584 69.3248 207.55456-121.5488 282.23488-150.6304 64.512-25.088 203.25376-22.9376 266.83392-3.7888 86.25152 26.112 171.2128 190.976 268.41088 169.2672 133.14048-29.696 54.72256-312.4224 34.59072-394.9568zM318.98624 564.3264a129.536 129.536 0 1 1 129.50528-129.536 129.56672 129.56672 0 0 1-129.50528 129.536z m403.61984-237.2608a37.888 37.888 0 1 1 0 53.6576 37.98016 37.98016 0 0 1 0-53.6576z m-72.12032 125.7472a37.888 37.888 0 1 1 53.57568 0 37.888 37.888 0 0 1-53.56544 0z m123.15648 69.632a37.888 37.888 0 1 1 0-53.6576 37.96992 37.96992 0 0 1 0 53.6576z m72.12032-72.192a37.888 37.888 0 1 1 0-53.5552 37.7856 37.7856 0 0 1 0 53.5552z m-526.77632-91.648a76.1344 76.1344 0 1 0 76.11392 76.1856 76.25728 76.25728 0 0 0-76.11392-76.1856z" fill="#007ece" p-id="835"></path></svg>