<?xml version="1.0" standalone="no"?><!DOCTYPE svg PUBLIC "-//W3C//DTD SVG 1.1//EN" "http://www.w3.org/Graphics/SVG/1.1/DTD/svg11.dtd"><svg t="1614861014536" class="icon" viewBox="0 0 1024 1024" version="1.1" xmlns="http://www.w3.org/2000/svg" p-id="22954" xmlns:xlink="http://www.w3.org/1999/xlink" width="128" height="128"><defs><style type="text/css"></style></defs><path d="M852.8 798.3H424.5c-1.9 0-3.5-1.6-3.5-3.5V643.4h435.8v150.9c0 2.2-1.8 4-4 4zM835.1 643.4H421v-94.1c0-26.2 21.2-47.4 47.4-47.4h351.2c20.6 0 37.3 16.7 37.3 37.3v82.5c-0.1 12-9.8 21.7-21.8 21.7z" fill="#E8CB3A" p-id="22955"></path><path d="M826.2 822.3H203.7c-23.2 0-42-18.9-42-42v-189h710.4v185.2c0 25.2-20.6 45.8-45.9 45.8zM192.3 621.8v158.4c0 6.3 5.1 11.5 11.5 11.5h622.5c8.4 0 15.3-6.9 15.3-15.3V621.8H192.3z" fill="#050505" p-id="22956"></path><path d="M388.2 432.2h-28.6c-9.2 0-16.6-7.4-16.6-16.6v-80.1c0-9.2 7.4-16.6 16.6-16.6h28.6c9.2 0 16.6 7.4 16.6 16.6v80.1c0 9.2-7.4 16.6-16.6 16.6zM532.4 432.2h-31c-8.5 0-15.4-6.9-15.4-15.4V273.3c0-8.5 6.9-15.4 15.4-15.4h31c8.5 0 15.4 6.9 15.4 15.4v143.5c0 8.5-6.9 15.4-15.4 15.4zM684.2 432.2h-32.9c-8 0-14.5-6.5-14.5-14.5v-84.4c0-8 6.5-14.5 14.5-14.5h32.9c8 0 14.5 6.5 14.5 14.5v84.4c-0.1 8-6.5 14.5-14.5 14.5z" fill="#7F291B" p-id="22957"></path><path d="M373.9 299.3c-29.2 0-53-23.3-53-51.9 0-24.2 18.6-83.2 53-83.2s53 59.1 53 83.2c0 28.6-23.8 51.9-53 51.9z m-0.2-104.6c-7.1 2-22.1 34.3-22.1 52.7 0 11.8 10 21.4 22.4 21.4 12.3 0 22.4-9.6 22.4-21.4-0.1-18.4-15.1-50.7-22.7-52.7zM516.9 238.3c-29.2 0-53-23.3-53-51.9 0-24.2 18.6-83.2 53-83.2s53 59.1 53 83.2c-0.1 28.6-23.8 51.9-53 51.9z m-0.3-104.6c-7.1 2-22.1 34.3-22.1 52.7 0 11.8 10 21.4 22.4 21.4 12.3 0 22.4-9.6 22.4-21.4 0-18.4-15.1-50.7-22.7-52.7zM667.7 299.3c-29.2 0-53-23.3-53-51.9 0-24.2 18.6-83.2 53-83.2s53 59.1 53 83.2c0 28.6-23.8 51.9-53 51.9z m-0.2-104.6c-7.1 2-22.1 34.3-22.1 52.7 0 11.8 10 21.4 22.4 21.4 12.3 0 22.4-9.6 22.4-21.4-0.1-18.4-15.1-50.7-22.7-52.7z" fill="#A53B24" p-id="22958"></path><path d="M872.1 621.8H161.7v-99.6c0-62.9 51.2-114 114-114h462.1c74 0 134.3 60.2 134.3 134.3v79.3z m-679.8-30.5h649.3v-48.8c0-57.2-46.5-103.7-103.7-103.7H275.7c-46 0-83.5 37.4-83.5 83.5v69z" fill="#050505" p-id="22959"></path></svg>