<?xml version="1.0" standalone="no"?><!DOCTYPE svg PUBLIC "-//W3C//DTD SVG 1.1//EN" "http://www.w3.org/Graphics/SVG/1.1/DTD/svg11.dtd"><svg t="1614861068994" class="icon" viewBox="0 0 1024 1024" version="1.1" xmlns="http://www.w3.org/2000/svg" p-id="24259" xmlns:xlink="http://www.w3.org/1999/xlink" width="128" height="128"><defs><style type="text/css"></style></defs><path d="M512.62585 511.669105m-430.693068 0a430.693069 430.693069 0 1 0 861.386137 0 430.693069 430.693069 0 1 0-861.386137 0Z" fill="#212121" p-id="24260"></path><path d="M943.593015 511.058854a431.344694 431.344694 0 0 1-202.417467 365.747781 0.330984 0.330984 0 0 1-0.19135 0.098261l-148.011956-184.440894 122.619269 13.503117s58.87897 6.092176 72.294169 0c12.27227-4.850986 78.474263-98.069556 78.474263-98.069556s-190.05728-120.136887-255.023254-186.344052c7.421284-111.577845-8.559042-259.972501-8.559042-258.736482-47.84789 47.754801-53.940066 55.170913-101.782785 99.305575-20.831312-67.438012-30.631545-90.741361-51.457685-158.184545-62.597369 51.457685-110.346998 138.594423-144.6866 240.377208a406.836355 406.836355 0 0 0-21.87598 26.349437 567.239528 567.239528 0 0 0-13.7979 18.928154 592.389148 592.389148 0 0 0-26.535617 41.373013 892.121115 892.121115 0 0 0-17.599045 31.298685c-39.857727 74.864468-72.578609 160.666926-100.924295 237.90517a4.437256 4.437256 0 0 1-0.475789-0.951579C46.124439 539.352823 74.501154 348.318106 195.124175 217.879338c120.628192-130.443939 308.859888-173.632194 474.289881-108.836883 165.429994 64.800482 274.246191 224.355508 274.184131 402.02157z" fill="#E53935" p-id="24261"></path><path d="M524.277525 357.720123s-7.323023-42.898643-12.27227-58.78588c33.103582-31.960653 38.047657-36.811639 69.920393-67.443184 2.466866 61.257918 1.230847 93.125481-2.477209 167.984778-18.359275-18.452364-55.170913-41.760885-55.170914-41.760886z m-143.445409 210.888592s-34.339601-20.831312-60.114988-24.446279c7.421284-17.221517 27.016578-39.288848 31.960653-45.375853-9.893322 3.620139-80.946301 35.482531-88.367585 62.493937a386.785958 386.785958 0 0 1 58.87897 19.600465 186.14753 186.14753 0 0 0-45.370681 104.249651s112.813864-17.216345 197.473393-6.180094c1.46357 0.868833 3.144349 1.292907 4.850985 1.236018l44.134662 1.236019 140.202799 233.431713 1.148101 1.810069c-0.19135 0.093089-0.289611 0.186179-0.3827 0.186179-264.440786 95.597519-455.542735-80.377422-496.346869-141.919779 0.170664-0.527506 0.299954-1.065355 0.3827-1.613548 36.718549-155.241889 81.996141-341.017062 155.143628-395.898364 38.047657-66.300254 49.078737-164.36981 117.66485-215.832667 17.216345 51.457685 44.232923 158.189716 62.592198 209.647401 80.951472 80.951472 203.555226 181.493066 285.649627 223.155691 8.559042 4.944075 19.595293 39.283676 19.595294 39.283676l-33.103583 41.662625-353.09281-35.57562a281.646788 281.646788 0 0 0-23.68605-0.95158 449.093716 449.093716 0 0 0-73.147488 7.038584c17.118084-42.898643 53.934895-77.238244 53.934894-77.238244z m114.049883-45.375852c19.595293-2.378948 40.426606 4.949247 63.729956 18.457535 22.067331-6.185265 24.539369-7.421284 46.611871-13.508289-28.252596-20.831312-58.87897-42.898643-100.546766-36.811638a244.343845 244.343845 0 0 0-9.800232 31.862392z" fill="#FFFFFF" p-id="24262"></path></svg>