<?xml version="1.0" standalone="no"?><!DOCTYPE svg PUBLIC "-//W3C//DTD SVG 1.1//EN" "http://www.w3.org/Graphics/SVG/1.1/DTD/svg11.dtd"><svg t="1615301902379" class="icon" viewBox="0 0 1024 1024" version="1.1" xmlns="http://www.w3.org/2000/svg" p-id="15028" width="128" height="128" xmlns:xlink="http://www.w3.org/1999/xlink"><defs><style type="text/css"></style></defs><path d="M512.1 63c-221.4 0-401.5 180.1-401.5 401.5 0 180.3 120.3 338.5 293.3 386.7l107.9 107.3 111.8-108.3c171-49.4 289.9-207.2 289.9-385.7 0.1-221.4-180-401.5-401.4-401.5z m94.3 745.7l-5.5 1.5-88.6 85.8-85.3-84.9-5.8-1.5c-156.6-41.1-265.9-183.1-265.9-345.2 0-196.8 160.1-356.8 356.9-356.8S869 267.7 869 464.4c0 160.5-108 302.1-262.6 344.3z" fill="#24BC77" p-id="15029"></path><path d="M415.4 292h-47.2v366h47.2V482.9h106.3v175.6h47.2V435.6H415.4zM608.8 435.6H656v222.9h-47.2zM608.8 351H656v59h-47.2z" fill="#24BC77" p-id="15030"></path></svg>